<svg id="svg" version="1.1" xmlns="http://www.w3.org/2000/svg" xmlns:xlink="http://www.w3.org/1999/xlink" width="400" height="400" viewBox="0, 0, 400,400"><g id="svgg"><path id="path0" d="M153.567 0.163 C 153.475 0.252,149.980 1.081,145.800 2.004 C 141.620 2.926,136.580 4.283,134.600 5.018 C 128.788 7.177,122.065 9.571,118.200 10.859 C 114.768 12.002,112.800 12.946,107.400 16.040 C 106.080 16.796,103.650 18.029,102.000 18.779 C 99.042 20.123,91.265 24.729,85.800 28.373 C 84.260 29.400,81.920 30.847,80.600 31.589 C 79.280 32.331,76.525 34.302,74.479 35.969 C 72.432 37.636,69.372 39.946,67.679 41.103 C 62.544 44.610,62.269 44.839,60.200 47.351 C 58.241 49.728,47.053 60.878,44.516 62.980 C 43.810 63.565,42.374 65.339,41.325 66.922 C 40.276 68.505,38.770 70.520,37.978 71.400 C 36.655 72.871,34.456 75.660,29.514 82.130 C 28.476 83.489,27.621 84.740,27.614 84.911 C 27.606 85.083,26.434 86.841,25.009 88.818 C 23.583 90.795,21.937 93.445,21.349 94.707 C 20.762 95.968,18.771 99.643,16.925 102.874 C 15.079 106.105,13.289 109.570,12.947 110.574 C 12.605 111.578,12.162 112.500,11.963 112.623 C 11.763 112.746,11.600 113.227,11.600 113.691 C 11.600 114.155,13.006 111.759,14.725 108.367 C 18.908 100.111,21.894 94.805,25.739 88.800 C 29.064 83.607,30.136 82.117,34.684 76.366 C 36.178 74.477,38.719 71.237,40.332 69.166 C 44.012 64.438,63.254 45.037,66.317 42.966 C 67.573 42.116,70.242 40.067,72.248 38.411 C 76.184 35.163,77.551 34.202,85.200 29.304 C 100.014 19.818,112.252 13.607,125.200 9.004 C 138.686 4.210,139.911 3.825,145.600 2.592 C 153.352 0.912,156.405 0.079,154.967 0.036 C 154.288 0.016,153.658 0.073,153.567 0.163 M155.235 0.905 C 153.384 1.374,152.069 1.823,152.311 1.904 C 152.554 1.985,153.426 1.865,154.250 1.637 C 155.360 1.331,155.903 1.350,156.350 1.712 C 156.787 2.065,156.875 2.069,156.670 1.728 C 156.283 1.083,157.161 0.601,157.715 1.155 C 158.270 1.710,158.935 1.742,158.598 1.197 C 158.234 0.608,159.519 0.234,160.138 0.749 C 160.536 1.079,160.667 1.040,160.667 0.594 C 160.667 -0.209,159.337 -0.133,155.235 0.905 M236.600 0.400 C 236.736 0.620,236.627 0.800,236.357 0.800 C 236.087 0.800,235.975 0.908,236.107 1.041 C 236.240 1.173,236.760 0.993,237.263 0.641 L 238.178 0.000 237.265 0.000 C 236.759 0.000,236.463 0.178,236.600 0.400 M242.000 0.476 C 242.770 0.697,246.280 1.468,249.800 2.188 C 254.002 3.048,258.123 4.217,261.800 5.592 C 264.880 6.743,270.514 8.736,274.319 10.019 C 288.289 14.731,310.161 27.172,325.200 38.960 C 328.610 41.633,332.120 44.349,333.000 44.995 C 335.505 46.835,352.220 63.883,354.575 67.000 C 355.739 68.540,357.816 71.060,359.192 72.600 C 360.569 74.140,361.985 75.850,362.341 76.400 C 362.697 76.950,364.585 79.650,366.536 82.400 C 370.104 87.429,375.191 95.779,378.412 101.893 C 379.366 103.705,380.201 105.132,380.267 105.066 C 380.441 104.892,376.367 96.904,375.086 94.908 C 374.489 93.977,374.000 93.137,374.000 93.040 C 374.000 92.765,370.045 86.455,368.467 84.212 C 367.688 83.106,365.719 80.261,364.092 77.892 C 362.464 75.523,360.197 72.643,359.054 71.492 C 357.910 70.341,356.139 68.140,355.117 66.600 C 353.684 64.439,344.234 54.761,341.643 52.800 C 341.498 52.690,340.394 51.430,339.190 50.000 C 336.138 46.376,335.058 45.408,331.400 43.015 C 329.640 41.864,327.843 40.520,327.407 40.027 C 326.971 39.535,325.711 38.480,324.607 37.683 C 323.503 36.887,321.700 35.487,320.600 34.574 C 318.330 32.688,311.961 28.526,307.810 26.214 C 306.275 25.359,303.395 23.641,301.410 22.397 C 299.424 21.152,295.913 19.179,293.607 18.013 C 291.301 16.847,288.727 15.459,287.889 14.930 C 285.403 13.360,280.499 11.347,275.800 9.966 C 273.380 9.255,269.420 7.869,267.000 6.887 C 259.822 3.974,256.107 2.831,250.400 1.783 C 247.430 1.237,244.478 0.612,243.840 0.395 C 243.202 0.178,242.212 0.016,241.640 0.036 C 240.725 0.068,240.768 0.121,242.000 0.476 M238.252 1.009 C 238.061 1.506,238.164 1.541,238.809 1.195 C 239.736 0.699,239.824 0.400,239.043 0.400 C 238.736 0.400,238.380 0.674,238.252 1.009 M257.000 4.941 C 259.200 5.680,262.236 6.761,263.748 7.342 C 266.524 8.411,267.499 8.664,266.400 8.029 C 265.312 7.402,255.829 4.093,254.400 3.843 C 253.630 3.709,254.800 4.203,257.000 4.941 M133.675 6.673 C 132.726 7.009,132.021 7.354,132.107 7.441 C 132.290 7.623,136.000 6.405,136.000 6.162 C 136.000 5.912,135.545 6.012,133.675 6.673 M128.075 8.673 C 126.466 9.229,125.221 9.754,125.307 9.841 C 125.477 10.010,131.197 8.137,131.532 7.802 C 131.900 7.433,131.030 7.653,128.075 8.673 M119.310 11.780 C 115.805 13.053,107.454 17.194,106.600 18.082 C 106.380 18.311,107.955 17.561,110.100 16.415 C 112.245 15.269,114.000 14.449,114.000 14.594 C 114.000 14.739,114.263 14.594,114.585 14.272 C 114.908 13.950,116.753 13.124,118.685 12.436 C 122.617 11.038,123.993 10.458,123.400 10.447 C 123.180 10.443,121.340 11.043,119.310 11.780 M276.800 11.892 C 277.790 12.237,278.690 12.628,278.800 12.760 C 278.910 12.892,279.225 13.018,279.500 13.040 C 280.732 13.139,280.871 13.239,280.634 13.857 C 280.413 14.430,280.468 14.443,281.066 13.957 C 281.673 13.462,281.718 13.485,281.466 14.157 C 281.213 14.829,281.258 14.851,281.866 14.357 C 282.473 13.862,282.518 13.885,282.266 14.557 C 282.043 15.149,282.095 15.219,282.504 14.879 C 283.195 14.306,284.212 14.928,283.774 15.655 C 283.534 16.054,283.647 16.040,284.198 15.600 C 284.886 15.051,284.926 15.064,284.666 15.757 C 284.413 16.429,284.458 16.451,285.066 15.957 C 285.673 15.462,285.718 15.485,285.466 16.157 C 285.213 16.829,285.258 16.851,285.866 16.357 C 286.473 15.862,286.518 15.885,286.266 16.557 C 286.025 17.199,286.074 17.237,286.591 16.808 C 287.083 16.399,287.200 16.401,287.200 16.818 C 287.200 17.101,287.312 17.221,287.449 17.085 C 287.586 16.948,288.621 17.297,289.749 17.861 C 290.877 18.425,291.620 18.710,291.400 18.495 C 289.877 17.006,276.927 11.119,275.422 11.232 C 275.190 11.249,275.810 11.546,276.800 11.892 M100.000 21.238 C 98.350 22.133,96.820 23.049,96.600 23.275 C 96.277 23.605,102.981 20.196,103.567 19.732 C 104.359 19.104,102.441 19.914,100.000 21.238 M293.800 19.894 C 294.020 20.103,295.460 20.937,297.000 21.747 C 298.540 22.558,299.440 22.932,299.000 22.578 C 298.086 21.844,293.190 19.316,293.800 19.894 M309.000 28.702 C 309.220 28.932,310.527 29.827,311.903 30.690 C 313.280 31.554,314.315 32.381,314.203 32.530 C 314.092 32.678,314.115 32.715,314.256 32.611 C 314.909 32.128,316.773 33.751,316.285 34.377 C 315.874 34.905,315.893 34.927,316.411 34.525 C 316.908 34.138,317.428 34.348,319.211 35.653 C 320.945 36.922,321.109 36.990,320.000 35.979 C 318.224 34.361,307.852 27.498,309.000 28.702 M81.700 32.446 C 80.337 33.319,79.895 33.906,81.100 33.243 C 82.018 32.739,83.456 31.627,83.200 31.619 C 83.090 31.616,82.415 31.988,81.700 32.446 M77.858 35.018 C 76.836 35.798,76.000 36.534,76.000 36.652 C 76.000 36.833,78.527 35.013,79.780 33.929 C 80.846 33.006,79.475 33.783,77.858 35.018 M321.600 37.293 C 321.600 37.512,325.424 40.663,328.875 43.289 C 329.907 44.074,330.627 44.840,330.475 44.991 C 330.324 45.143,330.380 45.223,330.600 45.170 C 331.600 44.928,332.434 45.676,331.910 46.347 C 331.474 46.905,331.487 46.932,332.001 46.533 C 332.466 46.172,332.778 46.195,333.378 46.633 C 334.099 47.160,333.946 47.397,333.000 47.220 C 332.780 47.179,333.402 47.967,334.383 48.972 C 336.212 50.847,336.435 51.019,336.353 50.500 C 336.205 49.567,336.698 49.928,339.644 52.913 L 342.888 56.200 339.744 52.633 C 335.352 47.651,334.801 47.124,331.725 44.956 C 329.368 43.294,324.508 39.537,322.300 37.668 C 321.915 37.343,321.600 37.174,321.600 37.293 M67.418 43.014 C 65.096 44.663,62.085 47.430,58.859 50.879 L 53.883 56.200 58.341 51.765 C 60.794 49.326,62.821 47.436,62.847 47.565 C 62.873 47.694,62.863 47.965,62.825 48.168 C 62.786 48.370,63.033 48.305,63.373 48.022 C 63.713 47.740,63.886 47.338,63.756 47.129 C 63.293 46.380,64.851 45.148,65.561 45.701 C 66.108 46.128,66.131 46.111,65.720 45.583 C 65.315 45.063,65.646 44.691,67.834 43.208 C 70.011 41.731,71.717 40.304,71.149 40.434 C 71.067 40.453,69.388 41.614,67.418 43.014 M336.142 49.694 C 336.016 49.898,335.398 49.573,334.770 48.972 C 334.142 48.370,333.732 47.710,333.858 47.506 C 333.984 47.302,334.602 47.627,335.230 48.228 C 335.858 48.830,336.268 49.490,336.142 49.694 M48.773 60.920 C 44.511 65.047,42.178 67.683,41.444 69.200 C 41.284 69.530,41.653 69.170,42.263 68.400 C 42.873 67.630,45.709 64.615,48.567 61.700 C 51.424 58.785,53.680 56.409,53.581 56.420 C 53.481 56.431,51.318 58.456,48.773 60.920 M347.172 60.200 C 348.772 61.960,350.467 63.809,350.940 64.308 C 351.413 64.807,351.800 65.392,351.800 65.608 C 351.800 65.824,351.952 65.988,352.138 65.972 C 352.323 65.957,353.014 66.677,353.672 67.572 C 355.328 69.823,355.526 69.621,353.940 67.300 C 353.226 66.255,350.757 63.510,348.452 61.200 C 345.009 57.748,344.781 57.570,347.172 60.200 M38.159 73.300 C 36.407 75.321,35.887 76.000,36.090 76.000 C 36.207 76.000,36.967 75.190,37.779 74.200 C 39.281 72.366,39.579 71.663,38.159 73.300 M358.880 73.861 C 359.676 74.774,361.348 76.979,362.597 78.761 C 363.845 80.542,364.951 82.000,365.055 82.000 C 365.500 82.000,360.313 74.875,358.940 73.600 L 357.434 72.200 358.880 73.861 M32.902 79.900 C 30.180 83.340,28.427 85.930,30.659 83.211 C 33.164 80.162,36.035 76.400,35.858 76.400 C 35.755 76.400,34.425 77.975,32.902 79.900 M192.092 82.782 C 184.341 84.877,178.059 89.955,174.702 96.838 C 171.478 103.448,171.502 103.253,171.236 125.400 C 170.890 154.162,172.039 153.378,149.800 140.035 C 130.800 128.635,126.571 126.793,119.436 126.806 C 100.247 126.841,87.258 146.793,95.352 163.800 C 99.267 172.025,100.638 173.061,132.362 191.748 C 138.995 195.656,141.663 198.502,141.035 201.002 C 140.389 203.578,138.812 204.712,122.400 214.398 C 105.412 224.424,103.351 225.810,100.045 229.427 C 86.007 244.787,94.104 269.049,114.600 273.041 C 123.702 274.814,128.013 273.247,149.734 260.273 C 165.914 250.608,166.801 250.250,169.149 252.438 C 170.932 254.099,170.971 254.523,171.216 275.000 L 171.450 294.600 172.549 298.189 C 180.754 324.984,216.914 324.711,224.055 297.800 C 224.848 294.813,224.921 293.265,225.152 274.529 C 225.394 254.974,225.422 254.428,226.239 253.329 C 228.728 249.978,230.656 250.411,240.800 256.596 C 267.652 272.969,272.588 274.918,282.317 272.989 C 302.793 268.929,310.614 243.763,296.039 228.833 C 292.866 225.583,290.416 223.925,277.400 216.216 C 260.552 206.239,259.941 205.855,257.922 204.000 C 253.113 199.581,254.723 197.378,268.800 189.117 C 292.975 174.928,295.284 173.322,298.727 168.301 C 310.954 150.464,298.682 126.812,277.200 126.812 C 269.486 126.812,266.810 128.046,241.430 143.311 C 231.739 149.139,229.126 149.962,227.015 147.851 C 225.347 146.184,225.205 144.646,225.196 128.200 C 225.183 105.293,224.632 101.037,220.877 94.827 C 215.048 85.186,202.547 79.955,192.092 82.782 M366.627 84.400 C 368.429 87.023,369.179 87.866,368.229 86.200 C 367.852 85.540,366.998 84.370,366.330 83.600 C 365.351 82.471,365.409 82.626,366.627 84.400 M25.347 90.700 C 24.553 91.965,23.611 93.450,23.253 94.000 C 22.589 95.021,21.414 97.519,21.761 97.172 C 22.182 96.751,27.144 88.400,26.973 88.400 C 26.872 88.400,26.141 89.435,25.347 90.700 M17.044 105.300 C 15.255 108.506,12.652 113.996,12.848 114.146 C 12.932 114.209,14.281 111.682,15.847 108.531 C 18.873 102.441,19.336 101.193,17.044 105.300 M381.315 107.270 C 382.847 109.915,388.566 122.614,389.838 126.198 C 391.007 129.492,391.387 130.006,390.957 127.712 C 390.660 126.126,389.729 123.865,387.125 118.400 C 386.234 116.530,385.362 114.640,385.188 114.200 C 383.963 111.112,381.590 106.493,380.973 105.996 C 380.416 105.548,380.501 105.866,381.315 107.270 M10.246 116.986 C 9.891 117.528,9.600 118.177,9.600 118.429 C 9.600 118.680,9.079 119.991,8.443 121.343 C 4.632 129.438,2.798 133.936,2.832 135.104 C 2.849 135.707,2.957 135.930,3.072 135.600 C 3.919 133.164,6.274 127.477,10.652 117.300 C 11.316 115.754,11.142 115.619,10.246 116.986 M387.797 123.400 C 388.140 124.783,389.643 128.253,389.421 127.151 C 389.305 126.573,388.848 125.313,388.404 124.351 C 387.961 123.388,387.688 122.960,387.797 123.400 M6.814 127.862 C 6.361 128.886,6.066 129.799,6.159 129.892 C 6.251 129.985,6.446 129.687,6.590 129.230 C 6.735 128.774,7.052 128.400,7.294 128.400 C 7.535 128.400,7.625 128.291,7.492 128.159 C 7.360 128.026,7.415 127.486,7.616 126.959 C 8.259 125.268,7.666 125.935,6.814 127.862 M390.032 129.274 C 390.015 129.425,390.184 130.032,390.409 130.623 C 390.701 131.390,390.684 131.857,390.352 132.258 C 389.979 132.707,390.017 132.768,390.543 132.566 C 390.905 132.428,391.192 132.109,391.182 131.857 C 391.160 131.310,390.079 128.880,390.032 129.274 M391.393 130.700 C 391.545 131.085,392.126 132.660,392.682 134.200 C 393.886 137.532,394.176 137.960,393.775 135.812 C 393.450 134.074,391.759 130.000,391.362 130.000 C 391.226 130.000,391.240 130.315,391.393 130.700 M5.494 130.673 C 5.036 131.475,3.537 136.470,3.704 136.637 C 3.806 136.739,4.118 136.008,4.397 135.011 C 4.676 134.015,5.071 133.200,5.276 133.200 C 5.480 133.200,5.538 133.024,5.405 132.808 C 5.272 132.593,5.366 132.037,5.614 131.574 C 6.030 130.797,5.915 129.936,5.494 130.673 M392.048 135.200 C 392.042 135.530,392.283 136.340,392.586 137.000 C 393.293 138.545,393.303 137.826,392.600 136.000 C 392.303 135.230,392.055 134.870,392.048 135.200 M2.100 137.487 C 1.876 138.099,1.473 139.860,1.205 141.400 C 0.938 142.940,0.622 144.650,0.503 145.200 C 0.384 145.750,0.398 146.099,0.534 145.976 C 0.819 145.718,2.818 136.684,2.632 136.498 C 2.563 136.430,2.324 136.875,2.100 137.487 M2.969 138.183 C 2.833 138.723,2.815 139.398,2.929 139.683 C 3.043 139.967,3.151 139.694,3.168 139.076 C 3.186 138.444,3.373 138.060,3.595 138.197 C 3.822 138.337,3.889 138.177,3.753 137.821 C 3.423 136.963,3.255 137.040,2.969 138.183 M394.000 137.836 C 394.000 138.096,396.192 144.979,397.173 147.800 C 397.542 148.863,397.563 148.794,397.350 147.200 C 397.218 146.210,396.706 144.399,396.213 143.175 C 395.721 141.952,395.194 140.293,395.043 139.489 C 394.811 138.252,394.000 136.966,394.000 137.836 M396.269 148.600 C 396.657 151.027,397.234 152.572,396.941 150.400 C 396.807 149.410,396.544 148.240,396.355 147.800 C 396.135 147.284,396.104 147.569,396.269 148.600 M397.627 150.000 C 397.650 151.527,398.645 156.778,398.974 157.107 C 399.134 157.267,399.170 156.949,399.053 156.399 C 398.936 155.850,398.732 154.224,398.598 152.787 C 398.352 150.139,397.597 147.972,397.627 150.000 M399.228 158.833 C 399.244 159.365,399.419 160.160,399.619 160.600 C 399.871 161.158,399.907 160.915,399.738 159.800 C 399.455 157.943,399.187 157.436,399.228 158.833 M398.571 160.242 C 398.673 160.925,398.541 161.700,398.278 161.965 C 397.906 162.340,397.955 162.388,398.500 162.181 C 399.263 161.890,399.357 161.049,398.764 159.800 C 398.458 159.154,398.420 159.238,398.571 160.242 M398.875 163.074 C 398.316 164.101,398.242 164.869,398.785 164.011 C 399.098 163.515,399.203 163.543,399.450 164.187 C 399.630 164.656,399.561 165.013,399.272 165.109 C 399.012 165.196,398.814 165.567,398.832 165.933 C 398.851 166.353,398.938 166.414,399.066 166.098 C 399.177 165.821,399.433 165.697,399.634 165.821 C 400.054 166.080,400.055 164.672,399.636 163.200 L 399.351 162.200 398.875 163.074 M398.800 234.387 C 398.800 234.526,398.997 234.837,399.237 235.077 C 399.553 235.393,399.553 235.741,399.236 236.333 C 398.993 236.786,398.955 237.249,399.150 237.369 C 399.344 237.489,399.615 237.027,399.751 236.344 C 400.120 234.499,400.062 234.133,399.400 234.133 C 399.070 234.133,398.800 234.247,398.800 234.387 M398.000 237.918 C 398.000 238.146,398.206 238.402,398.457 238.486 C 398.800 238.600,398.800 238.853,398.456 239.495 C 398.204 239.966,398.150 240.446,398.336 240.561 C 398.523 240.676,398.872 240.128,399.113 239.343 C 399.354 238.558,399.444 238.023,399.312 238.154 C 399.181 238.286,398.832 238.193,398.537 237.948 C 398.185 237.655,398.000 237.645,398.000 237.918 M398.491 245.084 C 397.492 250.332,397.434 250.950,397.972 250.617 C 398.177 250.491,398.453 249.355,398.585 248.094 C 398.718 246.832,399.021 244.783,399.260 243.539 C 399.498 242.296,399.624 241.073,399.541 240.823 C 399.458 240.573,398.985 242.490,398.491 245.084 M396.495 250.640 C 396.229 251.908,396.079 253.012,396.161 253.094 C 396.390 253.323,397.294 249.283,397.126 248.779 C 397.045 248.535,396.761 249.373,396.495 250.640 M0.833 252.200 C 0.822 252.640,1.067 253.810,1.379 254.800 C 2.112 257.124,2.135 256.015,1.409 253.400 C 1.104 252.300,0.845 251.760,0.833 252.200 M396.606 254.300 C 396.214 255.785,394.837 259.937,393.547 263.528 C 391.035 270.515,390.774 271.474,392.037 269.080 C 393.357 266.580,396.995 255.795,397.360 253.300 C 397.724 250.815,397.419 251.220,396.606 254.300 M0.567 254.800 C 1.130 258.511,1.773 261.613,2.248 262.908 C 2.551 263.738,2.800 264.749,2.800 265.156 C 2.800 266.266,8.360 278.974,8.697 278.636 C 8.784 278.550,7.920 276.346,6.779 273.740 C 4.061 267.532,3.048 264.610,2.020 260.000 C 1.112 255.933,0.295 253.011,0.567 254.800 M394.620 257.505 C 394.222 258.767,393.804 260.070,393.690 260.400 C 393.552 260.798,393.616 260.865,393.878 260.600 C 394.353 260.121,395.762 255.629,395.516 255.382 C 395.421 255.287,395.018 256.243,394.620 257.505 M392.974 261.558 C 393.095 261.754,392.926 262.558,392.597 263.345 C 391.752 265.367,391.910 265.722,392.800 263.800 C 393.662 261.939,393.769 261.200,393.176 261.200 C 392.943 261.200,392.852 261.361,392.974 261.558 M3.632 263.429 C 3.561 264.392,4.903 267.584,5.280 267.350 C 5.534 267.194,5.542 267.007,5.303 266.850 C 5.092 266.713,4.637 265.790,4.292 264.800 C 3.946 263.810,3.649 263.193,3.632 263.429 M390.444 269.244 C 390.198 269.951,390.066 270.600,390.152 270.685 C 390.238 270.771,390.509 270.262,390.756 269.556 C 391.002 268.849,391.134 268.200,391.048 268.115 C 390.962 268.029,390.691 268.538,390.444 269.244 M6.423 270.926 C 6.389 271.414,8.085 275.248,8.259 275.074 C 8.342 274.992,7.968 273.951,7.428 272.762 C 6.888 271.573,6.436 270.747,6.423 270.926 M390.029 273.462 C 389.509 274.968,388.141 278.270,386.988 280.800 C 385.836 283.330,384.445 286.390,383.897 287.600 C 381.738 292.365,380.938 293.956,378.661 298.000 C 377.361 300.310,375.662 303.370,374.885 304.800 C 372.867 308.514,369.037 314.598,366.953 317.400 C 365.971 318.720,363.896 321.510,362.343 323.600 C 360.789 325.690,358.850 328.120,358.034 329.000 C 357.218 329.880,355.773 331.680,354.823 333.000 C 352.312 336.487,334.452 354.118,330.000 357.504 C 327.910 359.093,325.210 361.213,324.000 362.216 C 314.563 370.032,287.626 385.520,277.200 389.123 C 274.670 389.998,270.710 391.474,268.400 392.404 C 260.079 395.754,255.267 397.131,246.000 398.815 C 243.250 399.315,241.233 399.804,241.518 399.902 C 241.803 399.999,243.603 399.783,245.518 399.422 C 247.433 399.060,250.440 398.495,252.200 398.166 C 257.494 397.175,262.248 395.678,269.200 392.812 C 272.830 391.316,277.150 389.673,278.800 389.160 C 284.692 387.331,301.499 378.095,316.241 368.585 C 319.724 366.338,324.789 362.549,327.200 360.388 C 327.970 359.698,330.049 358.165,331.820 356.982 C 334.059 355.487,336.009 353.699,338.220 351.116 C 339.969 349.072,343.791 345.150,346.713 342.400 C 354.064 335.482,353.835 335.731,355.843 332.532 C 356.833 330.954,358.056 329.393,358.561 329.063 C 359.065 328.732,360.631 326.913,362.039 325.021 C 363.448 323.129,365.386 320.550,366.346 319.290 C 369.088 315.694,371.862 311.311,374.506 306.400 C 376.285 303.095,378.688 298.779,379.183 298.000 C 380.436 296.029,382.460 292.188,383.316 290.157 C 385.699 284.504,386.957 281.734,387.557 280.818 C 387.910 280.278,388.407 279.288,388.662 278.618 C 390.362 274.137,391.229 271.487,391.111 271.133 C 391.036 270.908,390.549 271.956,390.029 273.462 M387.667 276.780 C 387.433 277.451,387.327 278.000,387.431 278.000 C 387.701 278.000,388.456 275.922,388.257 275.724 C 388.167 275.633,387.901 276.108,387.667 276.780 M9.012 280.400 C 9.143 281.170,9.510 282.385,9.826 283.100 C 10.142 283.815,10.654 284.985,10.964 285.700 C 13.069 290.555,16.416 297.094,18.208 299.853 C 19.371 301.643,20.671 303.893,21.098 304.853 C 21.917 306.695,29.776 318.563,32.813 322.543 C 33.796 323.831,35.778 326.567,37.218 328.623 C 40.161 332.826,41.313 334.153,44.430 336.940 C 47.753 339.911,57.199 349.303,60.528 352.946 C 62.258 354.840,64.484 356.778,65.851 357.582 C 67.143 358.342,69.466 360.142,71.014 361.582 C 73.652 364.037,76.368 365.983,83.600 370.599 C 85.250 371.652,88.490 373.741,90.800 375.241 C 93.110 376.741,97.160 378.972,99.800 380.199 C 105.563 382.877,106.833 383.543,111.039 386.089 C 112.821 387.167,116.241 388.775,118.639 389.661 C 125.251 392.104,133.846 395.163,137.200 396.267 C 140.635 397.397,154.076 400.129,155.111 399.907 C 155.490 399.825,153.640 399.357,151.000 398.867 C 139.916 396.807,119.607 390.062,112.200 385.980 C 110.220 384.889,106.080 382.769,103.000 381.268 C 93.923 376.846,76.629 365.858,71.490 361.248 C 70.000 359.910,67.705 358.086,66.392 357.194 C 62.677 354.672,41.066 332.880,38.233 328.800 C 36.934 326.930,34.788 324.050,33.464 322.400 C 30.840 319.131,23.709 308.438,21.593 304.600 C 20.865 303.280,19.505 300.940,18.570 299.400 C 16.574 296.112,12.198 287.240,10.186 282.400 C 9.328 280.337,8.866 279.551,9.012 280.400 M11.818 284.500 C 11.968 284.995,12.255 285.576,12.456 285.791 C 12.657 286.006,12.619 285.601,12.372 284.891 C 11.865 283.438,11.397 283.108,11.818 284.500 M12.824 286.477 C 12.794 286.821,16.016 293.600,16.209 293.600 C 16.287 293.600,16.323 293.240,16.290 292.800 C 16.257 292.360,16.066 292.000,15.866 292.000 C 15.666 292.000,15.730 291.726,16.008 291.391 C 16.422 290.891,16.411 290.821,15.946 290.999 C 15.557 291.148,14.981 290.428,14.114 288.708 C 13.418 287.329,12.837 286.325,12.824 286.477 M379.400 294.400 C 379.059 295.060,378.869 295.600,378.979 295.600 C 379.089 295.600,379.459 295.060,379.800 294.400 C 380.141 293.740,380.331 293.200,380.221 293.200 C 380.111 293.200,379.741 293.740,379.400 294.400 M17.647 296.271 C 18.365 297.630,19.296 299.160,19.716 299.671 C 20.479 300.600,19.389 298.495,18.140 296.627 C 17.731 296.017,17.725 295.728,18.111 295.250 C 18.503 294.766,18.496 294.709,18.073 294.963 C 17.747 295.160,17.318 294.999,16.944 294.540 C 16.612 294.133,16.928 294.912,17.647 296.271 M22.623 304.856 C 23.550 306.663,27.230 312.400,27.462 312.400 C 27.671 312.400,27.586 312.249,25.656 309.215 C 24.892 308.013,24.267 306.806,24.267 306.533 C 24.267 306.259,24.138 306.115,23.980 306.213 C 23.822 306.310,23.469 305.848,23.194 305.186 C 22.920 304.524,22.524 303.877,22.315 303.747 C 22.105 303.618,22.244 304.117,22.623 304.856 M368.991 312.500 C 366.428 316.359,359.399 325.830,358.842 326.174 C 358.599 326.324,358.400 326.623,358.400 326.838 C 358.400 327.930,367.614 315.638,370.946 310.100 C 371.112 309.825,371.173 309.600,371.082 309.600 C 370.992 309.600,370.051 310.905,368.991 312.500 M29.477 315.631 C 29.875 316.308,30.456 317.073,30.768 317.331 C 31.080 317.589,30.832 317.035,30.215 316.100 C 28.920 314.137,28.409 313.812,29.477 315.631 M32.439 319.747 C 33.187 320.818,34.395 322.348,35.122 323.147 C 35.850 323.946,35.503 323.340,34.352 321.800 C 31.813 318.402,30.555 317.052,32.439 319.747 M36.651 325.300 C 37.745 327.132,42.340 333.204,43.362 334.167 C 46.324 336.958,47.235 337.620,45.261 335.544 C 43.855 334.066,43.281 333.197,43.587 333.008 C 43.922 332.801,43.862 332.510,43.373 331.970 C 42.999 331.557,42.529 331.320,42.329 331.444 C 41.649 331.864,40.737 330.758,41.252 330.138 C 41.616 329.699,41.586 329.631,41.108 329.814 C 40.690 329.974,39.925 329.236,38.631 327.423 C 37.011 325.152,35.767 323.818,36.651 325.300 M353.585 332.783 C 351.857 335.056,350.006 336.446,351.070 334.672 C 351.232 334.403,351.062 334.436,350.677 334.749 C 349.952 335.337,349.815 335.629,350.300 335.553 C 351.374 335.383,351.090 335.899,348.788 338.299 L 346.200 340.999 348.563 338.799 C 351.730 335.852,352.496 335.001,354.416 332.300 C 356.691 329.100,356.142 329.419,353.585 332.783 M43.443 332.690 C 43.020 333.113,42.668 332.947,42.570 332.278 C 42.484 331.690,42.572 331.645,43.042 332.035 C 43.359 332.298,43.540 332.593,43.443 332.690 M49.200 339.400 C 49.946 340.170,50.647 340.800,50.757 340.800 C 50.867 340.800,50.346 340.170,49.600 339.400 C 48.854 338.630,48.153 338.000,48.043 338.000 C 47.933 338.000,48.454 338.630,49.200 339.400 M339.381 347.300 L 337.800 349.000 339.500 347.419 C 341.081 345.948,341.384 345.600,341.081 345.600 C 341.016 345.600,340.251 346.365,339.381 347.300 M58.200 348.400 C 59.506 349.720,60.665 350.800,60.775 350.800 C 60.885 350.800,59.906 349.720,58.600 348.400 C 57.294 347.080,56.135 346.000,56.025 346.000 C 55.915 346.000,56.894 347.080,58.200 348.400 M335.812 351.188 C 334.387 352.635,333.720 353.065,333.362 352.769 C 333.045 352.505,332.786 352.499,332.629 352.753 C 332.496 352.968,332.581 353.264,332.817 353.411 C 333.094 353.582,332.990 353.866,332.525 354.205 C 331.969 354.612,331.664 354.626,331.201 354.267 C 330.678 353.860,330.671 353.890,331.149 354.500 C 331.451 354.885,331.541 355.201,331.349 355.202 C 331.157 355.203,330.460 355.666,329.800 356.231 C 328.288 357.525,329.214 357.061,331.724 355.266 C 333.570 353.946,334.394 353.191,336.975 350.448 C 338.874 348.430,337.948 349.020,335.812 351.188 M62.200 352.742 C 63.621 354.283,68.400 357.913,68.400 357.450 C 68.400 357.351,67.227 356.433,65.792 355.409 C 64.179 354.258,63.288 353.368,63.456 353.074 C 63.606 352.813,63.577 352.738,63.392 352.906 C 63.207 353.074,62.503 352.715,61.828 352.108 C 61.088 351.443,61.236 351.695,62.200 352.742 M325.793 359.335 C 324.697 360.289,322.000 362.386,319.800 363.996 C 315.794 366.927,314.433 368.028,315.600 367.389 C 317.600 366.296,328.555 357.656,327.993 357.615 C 327.879 357.607,326.889 358.381,325.793 359.335 M72.800 361.218 C 74.612 362.919,81.233 367.681,83.600 368.987 C 85.098 369.813,83.113 368.316,79.667 366.021 C 77.614 364.654,74.734 362.549,73.267 361.344 L 70.600 359.152 72.800 361.218 M312.993 368.656 C 310.952 370.009,310.232 370.723,311.826 369.814 C 313.230 369.014,315.101 367.622,314.793 367.609 C 314.679 367.604,313.869 368.075,312.993 368.656 M93.800 375.396 C 94.694 376.139,97.228 377.509,96.600 376.910 C 96.380 376.700,95.480 376.124,94.600 375.630 C 93.720 375.135,93.360 375.030,93.800 375.396 M286.000 384.083 C 282.150 386.074,279.450 387.573,280.000 387.412 C 281.813 386.884,294.387 380.223,293.180 380.431 C 293.081 380.448,289.850 382.091,286.000 384.083 M112.000 384.988 C 112.000 385.376,117.004 387.708,120.720 389.054 C 122.788 389.802,124.777 390.566,125.140 390.752 C 126.698 391.549,127.912 391.606,128.182 390.897 C 128.381 390.375,128.332 390.314,127.990 390.654 C 127.340 391.298,125.896 390.848,126.187 390.091 C 126.365 389.627,126.295 389.589,125.889 389.926 C 125.291 390.423,118.715 388.178,114.429 386.015 C 113.093 385.340,112.000 384.878,112.000 384.988 M268.600 391.180 C 266.592 391.997,265.656 392.201,265.291 391.903 C 264.911 391.593,264.841 391.641,265.013 392.091 C 265.304 392.848,263.860 393.298,263.210 392.654 C 262.868 392.314,262.820 392.376,263.019 392.900 C 263.329 393.713,262.787 393.825,262.056 393.100 C 261.652 392.699,261.605 392.739,261.819 393.300 C 262.129 394.113,261.587 394.225,260.856 393.500 C 260.452 393.099,260.405 393.139,260.619 393.700 C 260.929 394.513,260.387 394.625,259.656 393.900 C 259.252 393.499,259.205 393.539,259.419 394.100 C 259.729 394.913,259.187 395.025,258.456 394.300 C 258.052 393.899,258.005 393.939,258.219 394.500 C 258.529 395.313,257.987 395.425,257.256 394.700 C 256.853 394.299,256.800 394.325,256.991 394.827 C 257.178 395.320,256.690 395.595,254.715 396.113 C 253.314 396.481,252.887 396.678,253.750 396.559 C 255.575 396.307,261.659 394.580,263.392 393.822 C 264.056 393.531,265.410 392.938,266.400 392.505 C 267.390 392.072,269.055 391.396,270.100 391.004 C 271.145 390.612,272.000 390.226,272.000 390.146 C 272.000 389.862,271.370 390.054,268.600 391.180 M131.390 392.016 C 131.248 392.245,130.743 392.313,130.266 392.167 C 129.790 392.020,129.504 392.012,129.632 392.149 C 129.981 392.522,140.108 395.992,140.800 395.976 C 141.130 395.968,139.458 395.309,137.084 394.511 C 133.637 393.354,132.816 392.934,133.008 392.431 C 133.200 391.925,133.147 391.899,132.744 392.300 C 132.051 392.987,131.465 392.929,131.745 392.200 C 132.008 391.514,131.775 391.394,131.390 392.016 M156.600 399.428 C 157.700 399.734,158.870 399.972,159.200 399.957 C 159.530 399.941,158.900 399.678,157.800 399.372 C 156.700 399.066,155.530 398.828,155.200 398.843 C 154.870 398.859,155.500 399.122,156.600 399.428 M239.600 399.200 C 238.808 399.454,238.767 399.520,239.400 399.520 C 239.840 399.520,240.650 399.376,241.200 399.200 C 241.992 398.946,242.033 398.880,241.400 398.880 C 240.960 398.880,240.150 399.024,239.600 399.200 " stroke="none" fill="#fbf9f9" fill-rule="evenodd"></path><path id="path1" d="M150.400 0.470 C 142.210 2.219,138.966 3.027,136.200 4.007 C 134.440 4.631,129.850 6.238,126.000 7.580 C 114.933 11.436,113.608 11.969,109.942 14.047 C 108.040 15.125,104.800 16.791,102.742 17.750 C 99.222 19.389,90.623 24.389,84.800 28.184 C 75.763 34.072,73.878 35.396,71.000 37.872 C 69.240 39.386,66.811 41.249,65.602 42.012 C 62.921 43.705,42.515 64.092,40.391 67.200 C 39.564 68.410,38.403 69.940,37.812 70.600 C 37.220 71.260,36.047 72.715,35.205 73.833 C 34.362 74.952,32.919 76.738,31.998 77.802 C 30.077 80.021,22.326 91.616,20.768 94.600 C 18.238 99.447,16.223 103.131,15.191 104.800 C 14.579 105.790,13.407 108.130,12.588 110.000 C 11.768 111.870,10.671 114.350,10.149 115.511 C 9.627 116.672,9.200 117.815,9.200 118.051 C 9.200 118.287,8.480 119.996,7.600 121.848 C 6.720 123.700,6.000 125.335,6.000 125.481 C 6.000 125.628,5.640 126.524,5.200 127.474 C 3.163 131.870,2.811 132.801,2.056 135.800 C -0.071 144.252,0.020 141.391,0.020 200.000 C 0.020 258.460,-0.073 255.459,1.999 264.046 C 2.599 266.531,6.952 277.491,7.938 279.000 C 8.082 279.220,8.420 280.030,8.690 280.800 L 9.179 282.200 8.984 280.600 C 8.823 279.277,9.032 279.588,10.195 282.400 C 12.171 287.182,16.555 296.081,18.570 299.400 C 19.505 300.940,20.865 303.280,21.593 304.600 C 23.709 308.438,30.840 319.131,33.464 322.400 C 34.788 324.050,36.934 326.930,38.233 328.800 C 41.066 332.880,62.677 354.672,66.392 357.194 C 67.705 358.086,70.000 359.910,71.490 361.248 C 76.629 365.858,93.923 376.846,103.000 381.268 C 106.080 382.769,110.220 384.889,112.200 385.980 C 119.380 389.937,138.606 396.407,149.673 398.592 L 156.622 399.963 196.911 399.990 C 221.653 400.007,237.200 399.873,237.200 399.643 C 237.200 399.422,237.653 399.440,238.308 399.688 C 239.171 400.013,240.659 399.867,245.008 399.031 C 256.061 396.906,259.530 395.935,267.600 392.711 C 270.350 391.612,274.670 389.997,277.200 389.123 C 287.624 385.521,314.562 370.033,324.000 362.216 C 325.210 361.213,327.910 359.093,330.000 357.504 C 334.452 354.118,352.312 336.487,354.823 333.000 C 355.773 331.680,357.218 329.880,358.034 329.000 C 358.850 328.120,360.789 325.690,362.343 323.600 C 363.896 321.510,365.971 318.720,366.953 317.400 C 369.037 314.598,372.867 308.514,374.885 304.800 C 375.662 303.370,377.361 300.310,378.661 298.000 C 380.938 293.956,381.738 292.365,383.897 287.600 C 384.445 286.390,385.836 283.330,386.988 280.800 C 388.141 278.270,389.509 274.968,390.029 273.462 C 390.549 271.956,391.036 270.908,391.111 271.133 C 391.229 271.487,390.362 274.137,388.662 278.618 C 388.407 279.288,387.910 280.278,387.557 280.818 C 386.957 281.734,385.699 284.504,383.316 290.157 C 382.460 292.188,380.436 296.029,379.183 298.000 C 378.688 298.779,376.285 303.095,374.506 306.400 C 371.862 311.311,369.088 315.694,366.346 319.290 C 365.386 320.550,363.448 323.129,362.039 325.021 C 360.631 326.913,359.065 328.732,358.561 329.063 C 358.056 329.393,356.833 330.954,355.843 332.532 C 353.835 335.731,354.064 335.482,346.713 342.400 C 343.791 345.150,339.969 349.072,338.220 351.116 C 336.009 353.699,334.059 355.487,331.820 356.982 C 330.049 358.165,327.970 359.698,327.200 360.388 C 319.938 366.899,304.754 376.334,285.400 386.363 C 283.420 387.389,280.450 388.648,278.800 389.161 C 275.412 390.213,263.932 394.865,264.160 395.093 C 264.241 395.175,265.904 394.589,267.854 393.790 C 269.804 392.992,273.733 391.531,276.585 390.542 C 289.316 386.131,316.856 370.164,327.200 361.198 C 328.630 359.958,330.880 358.214,332.200 357.323 C 333.520 356.431,335.770 354.475,337.200 352.977 C 338.630 351.479,342.927 347.183,346.748 343.431 C 350.570 339.679,354.524 335.437,355.535 334.004 C 356.546 332.572,358.511 330.140,359.901 328.600 C 361.290 327.060,363.186 324.702,364.114 323.360 C 365.041 322.017,367.073 319.137,368.628 316.960 C 371.440 313.023,373.092 310.387,375.625 305.800 C 376.354 304.480,377.824 301.870,378.891 300.000 C 380.689 296.851,381.914 294.405,384.805 288.200 C 389.117 278.943,389.340 278.395,393.502 266.800 C 396.881 257.385,397.606 255.132,397.622 254.000 C 397.629 253.450,397.909 252.280,398.245 251.400 C 399.576 247.906,400.369 236.823,399.395 235.336 C 398.669 234.229,398.649 233.970,399.300 234.100 C 399.814 234.203,400.282 167.362,399.777 166.011 C 399.583 165.493,399.512 165.493,399.185 166.011 C 398.868 166.512,398.811 166.500,398.806 165.933 C 398.803 165.567,399.025 165.192,399.300 165.100 C 400.230 164.790,399.509 150.742,398.500 149.516 C 398.266 149.232,397.941 148.100,397.777 147.000 C 397.613 145.900,396.769 143.020,395.901 140.600 C 395.034 138.180,394.178 135.608,394.001 134.886 C 393.823 134.163,393.227 132.453,392.676 131.086 C 392.126 129.718,391.308 127.412,390.860 125.960 C 390.032 123.278,385.417 112.896,382.787 107.800 C 377.055 96.691,371.842 87.738,368.238 82.811 C 366.866 80.935,364.800 77.996,363.646 76.281 C 362.493 74.565,360.720 72.315,359.706 71.281 C 358.692 70.246,356.882 68.050,355.683 66.400 C 352.911 62.583,335.396 45.093,332.137 42.887 C 330.782 41.970,328.892 40.514,327.937 39.651 C 317.985 30.661,287.634 12.879,277.000 9.810 C 274.800 9.174,270.120 7.537,266.600 6.172 C 259.273 3.329,256.001 2.321,251.200 1.427 C 249.330 1.079,246.841 0.599,245.669 0.361 C 244.497 0.123,243.454 0.013,243.350 0.116 C 243.099 0.368,244.166 0.618,250.459 1.785 C 256.115 2.834,259.853 3.986,267.000 6.887 C 269.420 7.869,273.380 9.255,275.800 9.966 C 280.499 11.347,285.403 13.360,287.889 14.930 C 288.727 15.459,291.301 16.847,293.607 18.013 C 295.913 19.179,299.424 21.152,301.410 22.397 C 303.395 23.641,306.275 25.359,307.810 26.214 C 311.961 28.526,318.330 32.688,320.600 34.574 C 321.700 35.487,323.503 36.887,324.607 37.683 C 325.711 38.480,326.971 39.535,327.407 40.027 C 327.843 40.520,329.640 41.864,331.400 43.015 C 335.058 45.408,336.138 46.376,339.190 50.000 C 340.394 51.430,341.498 52.690,341.643 52.800 C 344.234 54.761,353.684 64.439,355.117 66.600 C 356.139 68.140,357.910 70.341,359.054 71.492 C 360.197 72.643,362.464 75.523,364.092 77.892 C 365.719 80.261,367.688 83.106,368.467 84.212 C 370.045 86.455,374.000 92.765,374.000 93.040 C 374.000 93.137,374.489 93.977,375.086 94.908 C 376.367 96.904,380.441 104.892,380.267 105.066 C 380.201 105.132,379.366 103.705,378.412 101.893 C 375.191 95.779,370.104 87.429,366.536 82.400 C 364.585 79.650,362.697 76.950,362.341 76.400 C 361.985 75.850,360.569 74.140,359.192 72.600 C 357.816 71.060,355.739 68.540,354.575 67.000 C 352.220 63.883,335.505 46.835,333.000 44.995 C 332.120 44.349,328.610 41.633,325.200 38.960 C 310.161 27.172,288.289 14.731,274.319 10.019 C 270.514 8.736,264.880 6.743,261.800 5.592 C 258.194 4.243,253.921 3.025,249.800 2.169 C 246.280 1.439,242.377 0.618,241.128 0.344 C 239.238 -0.070,238.665 -0.059,237.728 0.410 C 236.203 1.173,235.677 1.346,236.389 0.852 C 237.309 0.213,235.696 -0.253,234.705 0.366 C 234.240 0.657,234.026 0.682,234.183 0.427 C 234.373 0.120,223.867 0.025,197.525 0.098 C 165.883 0.185,160.618 0.281,160.723 0.768 C 160.824 1.235,160.736 1.245,160.228 0.823 C 159.543 0.254,158.205 0.562,158.598 1.197 C 158.935 1.742,158.270 1.710,157.715 1.155 C 157.161 0.601,156.283 1.083,156.670 1.728 C 156.875 2.069,156.787 2.065,156.350 1.712 C 155.903 1.350,155.360 1.331,154.250 1.637 C 153.426 1.865,152.554 1.985,152.311 1.904 C 152.069 1.823,153.384 1.374,155.235 0.905 C 159.864 -0.266,157.827 -0.223,152.732 0.958 C 150.459 1.485,146.440 2.407,143.800 3.007 C 141.160 3.607,137.290 4.719,135.200 5.479 C 133.110 6.238,127.809 8.121,123.419 9.662 C 112.481 13.503,99.287 20.283,85.200 29.304 C 77.551 34.202,76.184 35.163,72.248 38.411 C 70.242 40.067,67.573 42.116,66.317 42.966 C 63.254 45.037,44.012 64.438,40.332 69.166 C 38.719 71.237,36.178 74.477,34.684 76.366 C 30.136 82.117,29.064 83.607,25.739 88.800 C 21.894 94.805,18.908 100.111,14.725 108.367 C 13.006 111.759,11.600 114.155,11.600 113.691 C 11.600 113.227,11.763 112.746,11.963 112.623 C 12.162 112.500,12.605 111.578,12.947 110.574 C 13.289 109.570,15.079 106.105,16.925 102.874 C 18.771 99.643,20.762 95.968,21.349 94.707 C 21.937 93.445,23.583 90.795,25.009 88.818 C 26.434 86.841,27.606 85.083,27.614 84.911 C 27.621 84.740,28.476 83.489,29.514 82.130 C 34.456 75.660,36.655 72.871,37.978 71.400 C 38.770 70.520,40.276 68.505,41.325 66.922 C 42.374 65.339,43.810 63.565,44.516 62.980 C 47.053 60.878,58.241 49.728,60.200 47.351 C 62.269 44.839,62.544 44.610,67.679 41.103 C 69.372 39.946,72.432 37.636,74.479 35.969 C 76.525 34.302,79.280 32.331,80.600 31.589 C 81.920 30.847,84.260 29.400,85.800 28.373 C 91.265 24.729,99.042 20.123,102.000 18.779 C 103.650 18.029,106.080 16.796,107.400 16.040 C 112.800 12.946,114.768 12.002,118.200 10.859 C 122.065 9.571,128.788 7.177,134.600 5.018 C 136.580 4.283,141.620 2.926,145.800 2.004 C 149.980 1.081,153.475 0.252,153.567 0.163 C 153.828 -0.092,152.372 0.049,150.400 0.470 M239.600 0.586 C 239.600 0.688,239.244 0.962,238.809 1.195 C 238.164 1.541,238.061 1.506,238.252 1.009 C 238.459 0.469,239.600 0.111,239.600 0.586 M260.800 5.886 C 265.455 7.559,267.355 8.359,266.748 8.388 C 266.609 8.395,265.259 7.924,263.748 7.342 C 262.236 6.761,259.200 5.680,257.000 4.941 C 254.800 4.203,253.630 3.709,254.400 3.843 C 255.170 3.978,258.050 4.897,260.800 5.886 M136.000 6.162 C 136.000 6.405,132.290 7.623,132.107 7.441 C 132.021 7.354,132.726 7.009,133.675 6.673 C 135.545 6.012,136.000 5.912,136.000 6.162 M131.532 7.802 C 131.197 8.137,125.477 10.010,125.307 9.841 C 125.221 9.754,126.466 9.229,128.075 8.673 C 131.030 7.653,131.900 7.433,131.532 7.802 M123.000 10.820 C 122.560 11.022,120.618 11.749,118.685 12.436 C 116.753 13.124,114.908 13.950,114.585 14.272 C 114.263 14.594,114.000 14.739,114.000 14.594 C 114.000 14.449,112.245 15.269,110.100 16.415 C 107.955 17.561,106.380 18.311,106.600 18.082 C 107.454 17.194,115.805 13.053,119.310 11.780 C 122.765 10.525,124.801 9.996,123.000 10.820 M278.422 12.064 C 280.900 12.894,290.575 17.688,291.400 18.495 C 291.620 18.710,290.877 18.425,289.749 17.861 C 288.621 17.297,287.586 16.948,287.449 17.085 C 287.312 17.221,287.200 17.101,287.200 16.818 C 287.200 16.401,287.083 16.399,286.591 16.808 C 286.074 17.237,286.025 17.199,286.266 16.557 C 286.518 15.885,286.473 15.862,285.866 16.357 C 285.258 16.851,285.213 16.829,285.466 16.157 C 285.718 15.485,285.673 15.462,285.066 15.957 C 284.458 16.451,284.413 16.429,284.666 15.757 C 284.926 15.064,284.886 15.051,284.198 15.600 C 283.647 16.040,283.534 16.054,283.774 15.655 C 284.212 14.928,283.195 14.306,282.504 14.879 C 282.095 15.219,282.043 15.149,282.266 14.557 C 282.518 13.885,282.473 13.862,281.866 14.357 C 281.258 14.851,281.213 14.829,281.466 14.157 C 281.718 13.485,281.673 13.462,281.066 13.957 C 280.468 14.443,280.413 14.430,280.634 13.857 C 280.871 13.239,280.732 13.139,279.500 13.040 C 279.225 13.018,278.910 12.892,278.800 12.760 C 278.690 12.628,277.790 12.237,276.800 11.892 C 275.810 11.546,275.190 11.249,275.422 11.232 C 275.655 11.214,277.005 11.589,278.422 12.064 M103.567 19.732 C 102.981 20.196,96.277 23.605,96.600 23.275 C 97.122 22.741,102.890 19.613,103.367 19.606 C 103.568 19.603,103.658 19.659,103.567 19.732 M299.000 22.578 C 299.440 22.932,298.540 22.558,297.000 21.747 C 295.460 20.937,294.020 20.103,293.800 19.894 C 293.190 19.316,298.086 21.844,299.000 22.578 M314.200 31.821 C 316.620 33.406,319.230 35.278,320.000 35.979 C 321.109 36.990,320.945 36.922,319.211 35.653 C 317.428 34.348,316.908 34.138,316.411 34.525 C 315.893 34.927,315.874 34.905,316.285 34.377 C 316.773 33.751,314.909 32.128,314.256 32.611 C 314.115 32.715,314.092 32.678,314.203 32.530 C 314.315 32.381,313.280 31.554,311.903 30.690 C 310.527 29.827,309.220 28.932,309.000 28.702 C 308.394 28.067,309.284 28.601,314.200 31.821 M82.600 32.242 C 81.575 33.032,80.400 33.679,80.400 33.453 C 80.400 33.250,82.903 31.611,83.200 31.619 C 83.310 31.623,83.040 31.903,82.600 32.242 M79.780 33.929 C 78.527 35.013,76.000 36.833,76.000 36.652 C 76.000 36.399,79.611 33.600,79.938 33.600 C 80.060 33.600,79.989 33.748,79.780 33.929 M326.000 40.648 C 327.650 41.961,330.226 43.899,331.725 44.956 C 334.801 47.124,335.352 47.651,339.744 52.633 L 342.888 56.200 339.644 52.913 C 336.698 49.928,336.205 49.567,336.353 50.500 C 336.435 51.019,336.212 50.847,334.383 48.972 C 333.402 47.967,332.780 47.179,333.000 47.220 C 333.946 47.397,334.099 47.160,333.378 46.633 C 332.778 46.195,332.466 46.172,332.001 46.533 C 331.487 46.932,331.474 46.905,331.910 46.347 C 332.434 45.676,331.600 44.928,330.600 45.170 C 330.380 45.223,330.324 45.143,330.475 44.991 C 330.627 44.840,329.907 44.074,328.875 43.289 C 325.424 40.663,321.600 37.512,321.600 37.293 C 321.600 37.174,321.915 37.343,322.300 37.668 C 322.685 37.994,324.350 39.335,326.000 40.648 M70.863 40.924 C 70.624 41.213,69.261 42.240,67.834 43.208 C 65.646 44.691,65.315 45.063,65.720 45.583 C 66.131 46.111,66.108 46.128,65.561 45.701 C 64.851 45.148,63.293 46.380,63.756 47.129 C 63.886 47.338,63.713 47.740,63.373 48.022 C 63.033 48.305,62.786 48.370,62.825 48.168 C 62.863 47.965,62.873 47.694,62.847 47.565 C 62.821 47.436,60.794 49.326,58.341 51.765 L 53.883 56.200 58.859 50.879 C 63.247 46.188,73.665 37.548,70.863 40.924 M333.858 47.506 C 333.732 47.710,334.142 48.370,334.770 48.972 C 335.398 49.573,336.016 49.898,336.142 49.694 C 336.268 49.490,335.858 48.830,335.230 48.228 C 334.602 47.627,333.984 47.302,333.858 47.506 M48.567 61.700 C 45.709 64.615,42.873 67.630,42.263 68.400 C 40.820 70.222,41.373 69.080,42.940 67.000 C 44.047 65.532,53.164 56.467,53.581 56.420 C 53.680 56.409,51.424 58.785,48.567 61.700 M353.940 67.300 C 355.526 69.621,355.328 69.823,353.672 67.572 C 353.014 66.677,352.323 65.957,352.138 65.972 C 351.952 65.988,351.800 65.824,351.800 65.608 C 351.800 65.392,351.413 64.807,350.940 64.308 C 346.122 59.220,344.679 57.418,348.452 61.200 C 350.757 63.510,353.226 66.255,353.940 67.300 M37.779 74.200 C 36.967 75.190,36.207 76.000,36.090 76.000 C 35.887 76.000,36.407 75.321,38.159 73.300 C 39.579 71.663,39.281 72.366,37.779 74.200 M362.846 78.500 C 364.165 80.425,365.159 82.000,365.055 82.000 C 364.951 82.000,363.845 80.542,362.597 78.761 C 361.348 76.979,359.676 74.774,358.880 73.861 L 357.434 72.200 358.940 73.600 C 359.769 74.370,361.527 76.575,362.846 78.500 M33.923 79.111 C 30.791 83.111,29.480 84.675,29.826 84.000 C 30.248 83.175,35.626 76.400,35.858 76.400 C 35.961 76.400,35.090 77.620,33.923 79.111 M206.386 83.361 C 214.672 86.273,220.708 92.316,223.398 100.394 C 224.853 104.763,225.185 109.907,225.196 128.200 C 225.209 152.463,225.603 152.830,241.430 143.311 C 266.810 128.046,269.486 126.812,277.200 126.812 C 298.682 126.812,310.954 150.464,298.727 168.301 C 295.284 173.322,292.975 174.928,268.800 189.117 C 254.723 197.378,253.113 199.581,257.922 204.000 C 259.941 205.855,260.552 206.239,277.400 216.216 C 290.416 223.925,292.866 225.583,296.039 228.833 C 310.614 243.763,302.793 268.929,282.317 272.989 C 272.588 274.918,267.652 272.969,240.800 256.596 C 230.656 250.411,228.728 249.978,226.239 253.329 C 225.422 254.428,225.394 254.974,225.152 274.529 C 224.921 293.265,224.848 294.813,224.055 297.800 C 216.914 324.711,180.754 324.984,172.549 298.189 L 171.450 294.600 171.216 275.000 C 170.971 254.523,170.932 254.099,169.149 252.438 C 166.801 250.250,165.914 250.608,149.734 260.273 C 128.013 273.247,123.702 274.814,114.600 273.041 C 94.104 269.049,86.007 244.787,100.045 229.427 C 103.351 225.810,105.412 224.424,122.400 214.398 C 138.812 204.712,140.389 203.578,141.035 201.002 C 141.663 198.502,138.995 195.656,132.362 191.748 C 100.638 173.061,99.267 172.025,95.352 163.800 C 87.258 146.793,100.247 126.841,119.436 126.806 C 126.571 126.793,130.800 128.635,149.800 140.035 C 165.610 149.520,166.343 149.836,168.713 148.176 C 170.989 146.582,170.980 146.663,171.236 125.400 C 171.502 103.253,171.478 103.448,174.702 96.838 C 180.398 85.161,194.471 79.174,206.386 83.361 M368.229 86.200 C 369.179 87.866,368.429 87.023,366.627 84.400 C 365.409 82.626,365.351 82.471,366.330 83.600 C 366.998 84.370,367.852 85.540,368.229 86.200 M24.555 92.690 C 23.124 95.050,21.867 97.066,21.761 97.172 C 21.414 97.519,22.589 95.021,23.253 94.000 C 23.611 93.450,24.553 91.965,25.347 90.700 C 26.141 89.435,26.872 88.400,26.973 88.400 C 27.074 88.400,25.985 90.331,24.555 92.690 M15.847 108.531 C 12.869 114.524,11.619 116.305,14.173 110.915 C 15.717 107.658,18.347 102.800,18.567 102.800 C 18.637 102.800,17.414 105.379,15.847 108.531 M383.292 109.996 C 384.160 111.868,385.013 113.760,385.188 114.200 C 385.362 114.640,386.234 116.530,387.125 118.400 C 389.729 123.865,390.660 126.126,390.957 127.712 C 391.387 130.006,391.007 129.492,389.838 126.198 C 388.566 122.614,382.847 109.915,381.315 107.270 C 380.501 105.866,380.416 105.548,380.973 105.996 C 381.381 106.324,382.424 108.124,383.292 109.996 M10.652 117.300 C 6.274 127.477,3.919 133.164,3.072 135.600 C 2.957 135.930,2.849 135.707,2.832 135.104 C 2.798 133.936,4.632 129.438,8.443 121.343 C 9.079 119.991,9.600 118.680,9.600 118.429 C 9.600 117.956,10.769 116.000,11.051 116.000 C 11.139 116.000,10.959 116.585,10.652 117.300 M389.421 127.151 C 389.537 127.728,389.264 127.300,388.814 126.200 C 387.695 123.464,387.415 122.200,388.404 124.351 C 388.848 125.313,389.305 126.573,389.421 127.151 M7.616 126.959 C 7.415 127.486,7.360 128.026,7.492 128.159 C 7.625 128.291,7.535 128.400,7.294 128.400 C 7.052 128.400,6.735 128.774,6.590 129.230 C 6.446 129.687,6.251 129.985,6.159 129.892 C 5.970 129.703,7.540 126.000,7.809 126.000 C 7.903 126.000,7.816 126.431,7.616 126.959 M391.182 131.857 C 391.192 132.109,390.905 132.428,390.543 132.566 C 390.017 132.768,389.979 132.707,390.352 132.258 C 390.684 131.857,390.701 131.390,390.409 130.623 C 390.184 130.032,390.015 129.425,390.032 129.274 C 390.079 128.880,391.160 131.310,391.182 131.857 M392.544 132.112 C 393.383 134.009,394.354 137.700,393.883 137.200 C 393.779 137.090,393.239 135.740,392.682 134.200 C 392.126 132.660,391.545 131.085,391.393 130.700 C 390.718 129.002,391.703 130.209,392.544 132.112 M5.614 131.574 C 5.366 132.037,5.272 132.593,5.405 132.808 C 5.538 133.024,5.480 133.200,5.276 133.200 C 5.071 133.200,4.676 134.015,4.397 135.011 C 4.118 136.008,3.806 136.739,3.704 136.637 C 3.537 136.470,5.036 131.475,5.494 130.673 C 5.915 129.936,6.030 130.797,5.614 131.574 M393.137 137.800 C 393.136 138.020,392.888 137.660,392.586 137.000 C 392.283 136.340,392.042 135.530,392.048 135.200 C 392.055 134.870,392.303 135.230,392.600 136.000 C 392.897 136.770,393.138 137.580,393.137 137.800 M1.768 141.187 C 1.225 143.698,0.670 145.853,0.534 145.976 C 0.398 146.099,0.384 145.750,0.503 145.200 C 0.622 144.650,0.938 142.940,1.205 141.400 C 1.681 138.666,2.384 136.250,2.632 136.498 C 2.700 136.566,2.311 138.676,1.768 141.187 M3.753 137.821 C 3.889 138.177,3.822 138.337,3.595 138.197 C 3.373 138.060,3.186 138.444,3.168 139.076 C 3.151 139.694,3.043 139.967,2.929 139.683 C 2.726 139.175,3.072 137.200,3.365 137.200 C 3.447 137.200,3.622 137.479,3.753 137.821 M395.043 139.489 C 395.194 140.293,395.721 141.952,396.213 143.175 C 396.706 144.399,397.218 146.210,397.350 147.200 C 397.628 149.286,397.627 149.284,395.378 142.360 C 393.879 137.746,393.811 137.436,394.385 137.790 C 394.596 137.921,394.892 138.686,395.043 139.489 M396.941 150.400 C 397.100 151.584,397.071 151.858,396.854 151.200 C 396.362 149.707,395.940 146.830,396.355 147.800 C 396.544 148.240,396.807 149.410,396.941 150.400 M398.598 152.787 C 398.732 154.224,398.936 155.850,399.053 156.399 C 399.170 156.949,399.134 157.267,398.974 157.107 C 398.645 156.778,397.650 151.527,397.627 150.000 C 397.597 147.972,398.352 150.139,398.598 152.787 M399.172 161.257 C 399.187 161.619,398.885 162.034,398.500 162.181 C 397.955 162.388,397.906 162.340,398.278 161.965 C 398.541 161.700,398.673 160.925,398.571 160.242 C 398.420 159.238,398.458 159.154,398.764 159.800 C 398.973 160.240,399.156 160.896,399.172 161.257 M399.600 163.224 C 399.600 163.677,399.420 163.936,399.200 163.800 C 398.980 163.664,398.800 163.773,398.800 164.043 C 398.800 164.313,398.695 164.429,398.568 164.301 C 398.332 164.065,399.073 162.400,399.414 162.400 C 399.516 162.400,399.600 162.771,399.600 163.224 M399.312 238.154 C 399.444 238.023,399.354 238.558,399.113 239.343 C 398.872 240.128,398.523 240.676,398.336 240.561 C 398.150 240.446,398.204 239.966,398.456 239.495 C 398.800 238.853,398.800 238.600,398.457 238.486 C 398.206 238.402,398.000 238.146,398.000 237.918 C 398.000 237.645,398.185 237.655,398.537 237.948 C 398.832 238.193,399.181 238.286,399.312 238.154 M399.260 243.539 C 399.021 244.783,398.718 246.832,398.585 248.094 C 398.377 250.073,397.606 251.812,397.597 250.324 C 397.590 249.221,399.397 240.391,399.541 240.823 C 399.624 241.073,399.498 242.296,399.260 243.539 M396.792 251.233 C 396.134 253.977,395.895 253.501,396.495 250.640 C 396.761 249.373,397.045 248.535,397.126 248.779 C 397.208 249.023,397.057 250.127,396.792 251.233 M1.956 256.000 C 1.951 256.330,1.691 255.790,1.379 254.800 C 1.067 253.810,0.822 252.640,0.833 252.200 C 0.845 251.760,1.104 252.300,1.409 253.400 C 1.715 254.500,1.961 255.670,1.956 256.000 M397.360 253.300 C 396.995 255.795,393.357 266.580,392.037 269.080 C 390.774 271.474,391.035 270.515,393.547 263.528 C 394.837 259.937,396.214 255.785,396.606 254.300 C 397.419 251.220,397.724 250.815,397.360 253.300 M2.020 260.000 C 3.048 264.610,4.061 267.532,6.779 273.740 C 7.920 276.346,8.784 278.550,8.697 278.636 C 8.360 278.974,2.800 266.266,2.800 265.156 C 2.800 264.749,2.551 263.738,2.248 262.908 C 1.773 261.613,1.130 258.511,0.567 254.800 C 0.295 253.011,1.112 255.933,2.020 260.000 M394.982 257.878 C 394.593 259.155,394.096 260.380,393.878 260.600 C 393.616 260.865,393.552 260.798,393.690 260.400 C 393.804 260.070,394.222 258.767,394.620 257.505 C 395.018 256.243,395.421 255.287,395.516 255.382 C 395.611 255.477,395.370 256.600,394.982 257.878 M393.570 261.700 C 393.534 262.310,392.071 265.526,392.030 265.087 C 392.013 264.915,392.269 264.131,392.597 263.345 C 392.926 262.558,393.095 261.754,392.974 261.558 C 392.852 261.361,392.943 261.200,393.176 261.200 C 393.409 261.200,393.587 261.425,393.570 261.700 M5.303 266.850 C 5.542 267.007,5.534 267.194,5.280 267.350 C 4.903 267.584,3.561 264.392,3.632 263.429 C 3.649 263.193,3.946 263.810,4.292 264.800 C 4.637 265.790,5.092 266.713,5.303 266.850 M390.756 269.556 C 390.509 270.262,390.238 270.771,390.152 270.685 C 390.066 270.600,390.198 269.951,390.444 269.244 C 390.691 268.538,390.962 268.029,391.048 268.115 C 391.134 268.200,391.002 268.849,390.756 269.556 M8.259 275.074 C 8.085 275.248,6.389 271.414,6.423 270.926 C 6.436 270.747,6.888 271.573,7.428 272.762 C 7.968 273.951,8.342 274.992,8.259 275.074 M388.021 276.945 C 387.461 278.418,387.147 278.272,387.667 276.780 C 387.901 276.108,388.167 275.633,388.257 275.724 C 388.348 275.815,388.242 276.364,388.021 276.945 M9.436 283.200 C 9.837 284.648,14.798 295.209,15.665 296.462 C 16.069 297.046,16.400 297.680,16.400 297.871 C 16.400 298.062,16.985 299.114,17.701 300.209 C 18.416 301.304,19.614 303.370,20.364 304.800 C 21.114 306.230,22.573 308.660,23.607 310.200 C 24.641 311.740,26.547 314.619,27.843 316.597 C 29.139 318.575,31.230 321.492,32.490 323.078 C 33.749 324.664,35.894 327.546,37.256 329.481 C 40.290 333.790,62.405 356.045,65.832 358.238 C 67.067 359.028,69.286 360.782,70.763 362.137 C 75.640 366.608,91.403 376.707,100.800 381.380 C 104.430 383.185,109.020 385.577,111.000 386.695 C 112.980 387.813,116.400 389.361,118.600 390.135 C 120.800 390.909,124.670 392.290,127.200 393.205 C 135.592 396.239,137.368 396.821,141.200 397.790 C 145.146 398.787,151.756 400.025,152.800 399.961 C 153.130 399.941,150.430 399.324,146.800 398.590 C 139.944 397.204,137.958 396.624,128.600 393.276 C 116.672 389.008,114.172 387.985,111.039 386.089 C 106.833 383.543,105.563 382.877,99.800 380.199 C 97.160 378.972,93.110 376.741,90.800 375.241 C 88.490 373.741,85.250 371.652,83.600 370.599 C 76.368 365.983,73.652 364.037,71.014 361.582 C 69.466 360.142,67.143 358.342,65.851 357.582 C 64.484 356.778,62.258 354.840,60.528 352.946 C 57.199 349.303,47.753 339.911,44.430 336.940 C 41.313 334.153,40.161 332.826,37.218 328.623 C 35.778 326.567,33.796 323.831,32.813 322.543 C 29.776 318.563,21.917 306.695,21.098 304.853 C 20.671 303.893,19.371 301.643,18.208 299.853 C 17.046 298.064,15.071 294.440,13.819 291.800 C 12.567 289.160,11.286 286.522,10.971 285.938 C 10.657 285.354,10.400 284.624,10.400 284.315 C 10.400 284.006,10.121 283.404,9.779 282.976 C 9.183 282.231,9.170 282.240,9.436 283.200 M12.372 284.891 C 12.619 285.601,12.657 286.006,12.456 285.791 C 12.029 285.335,11.458 283.600,11.734 283.600 C 11.837 283.600,12.124 284.181,12.372 284.891 M15.946 290.999 C 16.411 290.821,16.422 290.891,16.008 291.391 C 15.730 291.726,15.666 292.000,15.866 292.000 C 16.066 292.000,16.257 292.360,16.290 292.800 C 16.388 294.107,16.150 293.769,14.434 290.177 C 12.515 286.156,12.277 285.069,14.114 288.708 C 14.981 290.428,15.557 291.148,15.946 290.999 M379.800 294.400 C 379.459 295.060,379.089 295.600,378.979 295.600 C 378.869 295.600,379.059 295.060,379.400 294.400 C 379.741 293.740,380.111 293.200,380.221 293.200 C 380.331 293.200,380.141 293.740,379.800 294.400 M18.073 294.963 C 18.496 294.709,18.503 294.766,18.111 295.250 C 17.725 295.728,17.731 296.017,18.140 296.627 C 19.389 298.495,20.479 300.600,19.716 299.671 C 19.296 299.160,18.365 297.630,17.647 296.271 C 16.928 294.912,16.612 294.133,16.944 294.540 C 17.318 294.999,17.747 295.160,18.073 294.963 M23.194 305.186 C 23.469 305.848,23.822 306.310,23.980 306.213 C 24.138 306.115,24.267 306.259,24.267 306.533 C 24.267 306.806,24.892 308.013,25.656 309.215 C 27.586 312.249,27.671 312.400,27.462 312.400 C 27.230 312.400,23.550 306.663,22.623 304.856 C 22.244 304.117,22.105 303.618,22.315 303.747 C 22.524 303.877,22.920 304.524,23.194 305.186 M370.946 310.100 C 367.614 315.638,358.400 327.930,358.400 326.838 C 358.400 326.623,358.599 326.324,358.842 326.174 C 359.399 325.830,366.428 316.359,368.991 312.500 C 370.051 310.905,370.992 309.600,371.082 309.600 C 371.173 309.600,371.112 309.825,370.946 310.100 M30.215 316.100 C 30.832 317.035,31.080 317.589,30.768 317.331 C 30.167 316.834,28.636 314.400,28.924 314.400 C 29.017 314.400,29.598 315.165,30.215 316.100 M34.352 321.800 C 35.503 323.340,35.850 323.946,35.122 323.147 C 33.755 321.645,30.620 317.335,31.669 318.400 C 31.994 318.730,33.202 320.260,34.352 321.800 M38.631 327.423 C 39.925 329.236,40.690 329.974,41.108 329.814 C 41.586 329.631,41.616 329.699,41.252 330.138 C 40.737 330.758,41.649 331.864,42.329 331.444 C 42.529 331.320,42.999 331.557,43.373 331.970 C 43.862 332.510,43.922 332.801,43.587 333.008 C 43.281 333.197,43.855 334.066,45.261 335.544 C 47.235 337.620,46.324 336.958,43.362 334.167 C 41.761 332.658,36.052 324.800,36.556 324.800 C 36.668 324.800,37.602 325.980,38.631 327.423 M354.416 332.300 C 352.496 335.001,351.730 335.852,348.563 338.799 L 346.200 340.999 348.788 338.299 C 351.090 335.899,351.374 335.383,350.300 335.553 C 349.815 335.629,349.952 335.337,350.677 334.749 C 351.062 334.436,351.232 334.403,351.070 334.672 C 350.006 336.446,351.857 335.056,353.585 332.783 C 356.142 329.419,356.691 329.100,354.416 332.300 M42.570 332.278 C 42.629 332.675,42.809 332.970,42.971 332.933 C 43.579 332.796,43.602 332.500,43.042 332.035 C 42.572 331.645,42.484 331.690,42.570 332.278 M49.600 339.400 C 50.346 340.170,50.867 340.800,50.757 340.800 C 50.647 340.800,49.946 340.170,49.200 339.400 C 48.454 338.630,47.933 338.000,48.043 338.000 C 48.153 338.000,48.854 338.630,49.600 339.400 M341.200 345.719 C 341.200 345.784,340.435 346.549,339.500 347.419 L 337.800 349.000 339.381 347.300 C 340.852 345.719,341.200 345.416,341.200 345.719 M58.600 348.400 C 59.906 349.720,60.885 350.800,60.775 350.800 C 60.665 350.800,59.506 349.720,58.200 348.400 C 56.894 347.080,55.915 346.000,56.025 346.000 C 56.135 346.000,57.294 347.080,58.600 348.400 M336.975 350.448 C 334.394 353.191,333.570 353.946,331.724 355.266 C 329.214 357.061,328.288 357.525,329.800 356.231 C 330.460 355.666,331.157 355.203,331.349 355.202 C 331.541 355.201,331.451 354.885,331.149 354.500 C 330.671 353.890,330.678 353.860,331.201 354.267 C 331.664 354.626,331.969 354.612,332.525 354.205 C 332.990 353.866,333.094 353.582,332.817 353.411 C 332.581 353.264,332.496 352.968,332.629 352.753 C 332.786 352.499,333.045 352.505,333.362 352.769 C 333.720 353.065,334.387 352.635,335.812 351.188 C 337.948 349.020,338.874 348.430,336.975 350.448 M63.392 352.906 C 63.577 352.738,63.606 352.813,63.456 353.074 C 63.288 353.368,64.179 354.258,65.792 355.409 C 67.227 356.433,68.400 357.351,68.400 357.450 C 68.400 357.913,63.621 354.283,62.200 352.742 C 61.236 351.695,61.088 351.443,61.828 352.108 C 62.503 352.715,63.207 353.074,63.392 352.906 M326.600 359.048 C 324.909 360.546,316.619 366.832,315.600 367.389 C 314.433 368.028,315.794 366.927,319.800 363.996 C 322.000 362.386,324.697 360.289,325.793 359.335 C 326.889 358.381,327.879 357.607,327.993 357.615 C 328.107 357.623,327.480 358.268,326.600 359.048 M79.667 366.021 C 83.113 368.316,85.098 369.813,83.600 368.987 C 81.233 367.681,74.612 362.919,72.800 361.218 L 70.600 359.152 73.267 361.344 C 74.734 362.549,77.614 364.654,79.667 366.021 M314.026 368.366 C 312.818 369.295,310.455 370.659,311.000 370.113 C 311.537 369.575,314.532 367.598,314.793 367.609 C 314.907 367.614,314.562 367.955,314.026 368.366 M96.600 376.910 C 97.228 377.509,94.694 376.139,93.800 375.396 C 93.360 375.030,93.720 375.135,94.600 375.630 C 95.480 376.124,96.380 376.700,96.600 376.910 M292.980 380.760 C 292.400 381.308,281.138 387.081,280.000 387.412 C 279.450 387.573,282.150 386.074,286.000 384.083 C 293.247 380.334,293.615 380.159,292.980 380.760 M121.109 388.804 C 124.294 389.974,125.492 390.256,125.889 389.926 C 126.295 389.589,126.365 389.627,126.187 390.091 C 125.896 390.848,127.340 391.298,127.990 390.654 C 128.332 390.314,128.381 390.375,128.182 390.897 C 127.912 391.606,126.698 391.549,125.140 390.752 C 124.777 390.566,122.788 389.802,120.720 389.054 C 117.004 387.708,112.000 385.376,112.000 384.988 C 112.000 384.878,113.093 385.340,114.429 386.015 C 115.766 386.689,118.771 387.944,121.109 388.804 M272.000 390.146 C 272.000 390.226,271.145 390.612,270.100 391.004 C 269.055 391.396,267.390 392.072,266.400 392.505 C 265.410 392.938,264.056 393.531,263.392 393.822 C 261.659 394.580,255.575 396.307,253.750 396.559 C 252.887 396.678,253.314 396.481,254.715 396.113 C 256.690 395.595,257.178 395.320,256.991 394.827 C 256.800 394.325,256.853 394.299,257.256 394.700 C 257.987 395.425,258.529 395.313,258.219 394.500 C 258.005 393.939,258.052 393.899,258.456 394.300 C 259.187 395.025,259.729 394.913,259.419 394.100 C 259.205 393.539,259.252 393.499,259.656 393.900 C 260.387 394.625,260.929 394.513,260.619 393.700 C 260.405 393.139,260.452 393.099,260.856 393.500 C 261.587 394.225,262.129 394.113,261.819 393.300 C 261.605 392.739,261.652 392.699,262.056 393.100 C 262.787 393.825,263.329 393.713,263.019 392.900 C 262.820 392.376,262.868 392.314,263.210 392.654 C 263.860 393.298,265.304 392.848,265.013 392.091 C 264.841 391.641,264.911 391.593,265.291 391.903 C 265.656 392.201,266.592 391.997,268.600 391.180 C 271.370 390.054,272.000 389.862,272.000 390.146 M131.745 392.200 C 131.465 392.929,132.051 392.987,132.744 392.300 C 133.147 391.899,133.200 391.925,133.008 392.431 C 132.816 392.934,133.637 393.354,137.084 394.511 C 139.458 395.309,141.130 395.968,140.800 395.976 C 140.108 395.992,129.981 392.522,129.632 392.149 C 129.504 392.012,129.790 392.020,130.266 392.167 C 130.743 392.313,131.248 392.245,131.390 392.016 C 131.775 391.394,132.008 391.514,131.745 392.200 M259.400 396.429 C 256.871 397.226,251.426 398.397,246.400 399.225 C 244.750 399.497,243.613 399.793,243.874 399.884 C 245.034 400.288,260.169 397.043,261.935 396.012 C 262.909 395.444,262.111 395.575,259.400 396.429 M157.200 399.200 C 157.992 399.454,158.033 399.520,157.400 399.520 C 156.960 399.520,156.150 399.376,155.600 399.200 C 154.808 398.946,154.767 398.880,155.400 398.880 C 155.840 398.880,156.650 399.024,157.200 399.200 M241.200 399.200 C 240.650 399.376,239.840 399.520,239.400 399.520 C 238.767 399.520,238.808 399.454,239.600 399.200 C 240.150 399.024,240.960 398.880,241.400 398.880 C 242.033 398.880,241.992 398.946,241.200 399.200 " stroke="none" fill="#ec5454" fill-rule="evenodd"></path></g></svg>